<svg width="48" height="48" viewBox="0 0 48 48" fill="none" xmlns="http://www.w3.org/2000/svg">
<g clip-path="url(#clip0_1_1065)">
<path d="M19.2976 6.88194C15.1042 2.69068 6.89824 2.20468 1.0898 2.20468C0.488251 2.20468 0 2.69283 0 3.29438C0 9.10282 0.483858 17.3088 4.67726 21.5023C6.44708 23.2721 9.16061 24.0633 11.8501 24.0633C14.7729 24.0633 17.6695 23.1283 19.2976 21.5001C22.4209 18.3768 22.9942 10.5763 19.2976 6.88194ZM17.7567 19.9613C15.4246 22.2912 8.94922 22.6901 6.22047 19.9613C2.83562 16.5766 2.24928 9.70008 2.18604 4.39073C7.4954 4.45397 14.3719 5.04019 17.7566 8.42505C20.4855 11.1538 20.0866 17.6314 17.7567 19.9613Z" fill="#156963"/>
<path d="M46.9105 6.51575C41.102 6.51575 32.896 6.9996 28.7025 11.193C25.0061 14.8873 25.5792 22.6879 28.7025 25.8112C30.3307 27.4372 33.2251 28.3722 36.1479 28.3722C38.8374 28.3722 41.5488 27.5832 43.3229 25.8135C47.5141 21.6201 48.0002 13.4141 48.0002 7.60555C48.0003 7.004 47.512 6.51575 46.9105 6.51575ZM41.7776 24.2702C39.0489 26.999 32.5713 26.6001 30.2414 24.2702C27.9115 21.9403 27.5126 15.4627 30.2414 12.734C33.6262 9.34911 40.5026 8.76289 45.812 8.69965C45.7488 14.0111 45.1625 20.8876 41.7776 24.2702Z" fill="#156963"/>
<path d="M39.0401 15.9489C38.7829 15.4018 38.0462 15.2144 37.5035 15.4671C29.145 19.3969 25.0388 26.2493 23.173 33.2936C20.8649 18.3157 14.189 13.7496 11.3577 11.8121C11.0047 11.5701 10.73 11.3936 10.5775 11.2432C10.1525 10.8182 9.46154 10.8182 9.03653 11.2432C8.61152 11.6682 8.61152 12.3592 9.03653 12.7842C9.25231 12.9978 9.62501 13.2659 10.1285 13.6102C13.3193 15.7919 21.7955 21.5917 21.7955 44.7057C21.7955 45.3073 22.2838 45.7955 22.8853 45.7955C23.4869 45.7955 23.9751 45.3073 23.9751 44.708C23.9751 35.3687 26.4838 23.0564 38.432 17.4419C38.432 17.4398 38.6086 17.3569 38.6086 17.3569C39.1513 17.0997 39.2973 16.4937 39.0401 15.9489Z" fill="#156963"/>
</g>
<defs>
<clipPath id="clip0_1_1065">
<rect width="48" height="48" fill="white"/>
</clipPath>
</defs>
</svg>
