<svg width="20" height="20" viewBox="0 0 20 20" fill="none" xmlns="http://www.w3.org/2000/svg">
<g clip-path="url(#clip0_1_1122)">
<path d="M7.50033 18.3333C7.96056 18.3333 8.33366 17.9602 8.33366 17.5C8.33366 17.0397 7.96056 16.6666 7.50033 16.6666C7.04009 16.6666 6.66699 17.0397 6.66699 17.5C6.66699 17.9602 7.04009 18.3333 7.50033 18.3333Z" stroke="black" stroke-width="2" stroke-linecap="round" stroke-linejoin="round"/>
<path d="M16.6663 18.3333C17.1266 18.3333 17.4997 17.9602 17.4997 17.5C17.4997 17.0397 17.1266 16.6666 16.6663 16.6666C16.2061 16.6666 15.833 17.0397 15.833 17.5C15.833 17.9602 16.2061 18.3333 16.6663 18.3333Z" stroke="black" stroke-width="2" stroke-linecap="round" stroke-linejoin="round"/>
<path d="M0.833008 0.833374H4.16634L6.39967 11.9917C6.47588 12.3754 6.6846 12.72 6.9893 12.9653C7.29399 13.2106 7.67526 13.3409 8.06634 13.3334H16.1663C16.5574 13.3409 16.9387 13.2106 17.2434 12.9653C17.5481 12.72 17.7568 12.3754 17.833 11.9917L19.1663 5.00004H4.99967" stroke="black" stroke-width="2" stroke-linecap="round" stroke-linejoin="round"/>
</g>
<defs>
<clipPath id="clip0_1_1122">
<rect width="20" height="20" fill="white"/>
</clipPath>
</defs>
</svg>
