<svg width="48" height="48" viewBox="0 0 48 48" fill="none" xmlns="http://www.w3.org/2000/svg">
<g clip-path="url(#clip0_1_1040)">
<path d="M13 38H9C8.448 38 8 37.552 8 37C8 36.448 8.448 36 9 36H13C13.552 36 14 36.448 14 37C14 37.552 13.552 38 13 38Z" fill="#156963"/>
<path d="M45.5001 38H43.0001C42.4481 38 42.0001 37.552 42.0001 37C42.0001 36.448 42.4481 36 43.0001 36H44.6701L46.0181 28.816C46.0001 25.14 42.8601 22 39.0001 22H32.4341L29.2521 36H35.0001C35.5521 36 36.0001 36.448 36.0001 37C36.0001 37.552 35.5521 38 35.0001 38H28.0001C27.6961 38 27.4081 37.862 27.2181 37.624C27.0281 37.388 26.9561 37.076 27.0241 36.78L30.6601 20.78C30.7641 20.322 31.1681 20 31.6361 20H39.0001C43.9621 20 48.0001 24.038 48.0001 29L46.4821 37.184C46.3941 37.658 45.9821 38 45.5001 38Z" fill="#156963"/>
<path d="M39 42C36.244 42 34 39.758 34 37C34 34.242 36.244 32 39 32C41.756 32 44 34.242 44 37C44 39.758 41.756 42 39 42ZM39 34C37.346 34 36 35.346 36 37C36 38.654 37.346 40 39 40C40.654 40 42 38.654 42 37C42 35.346 40.654 34 39 34Z" fill="#156963"/>
<path d="M17 42C14.244 42 12 39.758 12 37C12 34.242 14.244 32 17 32C19.756 32 22 34.242 22 37C22 39.758 19.756 42 17 42ZM17 34C15.346 34 14 35.346 14 37C14 38.654 15.346 40 17 40C18.654 40 20 38.654 20 37C20 35.346 18.654 34 17 34Z" fill="#156963"/>
<path d="M13 20H5C4.448 20 4 19.552 4 19C4 18.448 4.448 18 5 18H13C13.552 18 14 18.448 14 19C14 19.552 13.552 20 13 20Z" fill="#156963"/>
<path d="M13 26H3C2.448 26 2 25.552 2 25C2 24.448 2.448 24 3 24H13C13.552 24 14 24.448 14 25C14 25.552 13.552 26 13 26Z" fill="#156963"/>
<path d="M13 32H1C0.448 32 0 31.552 0 31C0 30.448 0.448 30 1 30H13C13.552 30 14 30.448 14 31C14 31.552 13.552 32 13 32Z" fill="#156963"/>
<path d="M28 38H21C20.448 38 20 37.552 20 37C20 36.448 20.448 36 21 36H27.202L31.746 16H9C8.448 16 8 15.552 8 15C8 14.448 8.448 14 9 14H33C33.304 14 33.592 14.138 33.782 14.376C33.972 14.612 34.044 14.924 33.976 15.22L28.976 37.22C28.872 37.678 28.466 38 28 38Z" fill="#156963"/>
</g>
<defs>
<clipPath id="clip0_1_1040">
<rect width="48" height="48" fill="white"/>
</clipPath>
</defs>
</svg>
